# xmcd
#
# Track frame offsets: 
#        150
#        16375
#        34820
#        52423
#        69274
#        90805
#        106534
#        122894
#        140158
#        153310
#
# Disc length: 2233 seconds
#
# Revision: 0
# Processed by: cddbd v1.5.2PL0 Copyright (c) Steve Scherf et al.
# Submitted via: ExactAudioCopy v0.99pb5
#
DISCID=7e08b70a
DTITLE=Black Oil Brothers - Long Way From The Delta
DYEAR=2009
DGENRE=Blues
TTITLE0=Going For Broke
TTITLE1=Goggles Paisano
TTITLE2=Johnny And The Pale Rider
TTITLE3=Wednesday Afternoon
TTITLE4=One For Suzy
TTITLE5=Robert From Hibbing
TTITLE6=Not The Blues
TTITLE7=Indeed Sir
TTITLE8=Riding White Horses
TTITLE9=Love
EXTD=
EXTT0=
EXTT1=
EXTT2=
EXTT3=
EXTT4=
EXTT5=
EXTT6=
EXTT7=
EXTT8=
EXTT9=
PLAYORDER=
